<svg class="emoji" width="36" height="26" version="1.1" viewBox="0 0 36 26" xmlns="http://www.w3.org/2000/svg"><path d="m35.445 2c-0.693-1.191-1.968-2-3.445-2h-14v2zm-35.445 18h36v2h-36zm18-8h18v2h-18zm0-4h18v2h-18zm-18 8h36v2h-36zm4 10h28c1.477 0 2.752-0.809 3.445-2h-34.89c0.693 1.191 1.968 2 3.445 2zm14-22h18v2h-18z" fill="#b22334"/><path d="m0.068 22.679c0.017 0.093 0.036 0.186 0.059 0.277 0.026 0.101 0.058 0.198 0.092 0.296 0.089 0.259 0.197 0.509 0.333 0.743l3e-3 5e-3h34.89l2e-3 -4e-3c0.135-0.233 0.243-0.483 0.332-0.741 0.034-0.099 0.067-0.198 0.093-0.301 0.023-0.09 0.042-0.182 0.059-0.275 0.041-0.22 0.069-0.446 0.069-0.679h-36c0 0.233 0.028 0.458 0.068 0.679zm-0.068-4.679h36v2h-36zm0-4v2h36v-2h-18zm18-4h18v2h-18zm0-4h18v2h-18zm-18-2c0-0.233 0.03-0.457 0.068-0.679-0.04 0.221-0.068 0.446-0.068 0.679zm0.555-2-3e-3 5e-3zm-0.427 1.044c0.025-0.102 0.06-0.199 0.092-0.297-0.034 0.098-0.066 0.196-0.092 0.297zm17.872 0.956h18c0-0.233-0.028-0.459-0.069-0.68-0.017-0.092-0.035-0.184-0.059-0.274-0.027-0.103-0.059-0.203-0.094-0.302-0.089-0.258-0.197-0.507-0.332-0.74 1e-3 -1e-3 0-3e-3 -1e-3 -4e-3h-17.445z" fill="#eee"/><path d="m18 0h-14c-2.209 0-4 1.791-4 4v10h18z" fill="#3c3b6e"/><path d="M 2.001,2.726 2.619,3.175 2.383,3.9 3,3.452 3.618,3.9 3.382,3.175 4,2.726 H 3.236 L 3,2 2.765,2.726 Z m 2,2 L 4.619,5.175 4.383,5.9 5,5.452 5.618,5.9 5.382,5.175 6,4.726 H 5.236 L 5,4 4.765,4.726 Z m 4,0 L 8.619,5.175 8.383,5.9 9,5.452 9.618,5.9 9.382,5.175 10,4.726 H 9.236 L 9,4 8.765,4.726 Z m 4,0 0.618,0.449 L 12.383,5.9 13,5.452 13.618,5.9 13.382,5.175 14,4.726 H 13.236 L 13,4 12.765,4.726 Z m -8,4 L 4.619,9.175 4.383,9.9 5,9.452 5.618,9.9 5.382,9.175 6,8.726 H 5.236 L 5,8 4.765,8.726 Z m 4,0 L 8.619,9.175 8.383,9.9 9,9.452 9.618,9.9 9.382,9.175 10,8.726 H 9.236 L 9,8 8.765,8.726 Z m 4,0 0.618,0.449 L 12.383,9.9 13,9.452 13.618,9.9 13.382,9.175 14,8.726 H 13.236 L 13,8 12.765,8.726 Z m -6,-6 L 6.619,3.175 6.383,3.9 7,3.452 7.618,3.9 7.382,3.175 8,2.726 H 7.236 L 7,2 6.765,2.726 Z m 4,0 0.618,0.449 L 10.383,3.9 11,3.452 11.618,3.9 11.382,3.175 12,2.726 H 11.236 L 11,2 10.765,2.726 Z m 4,0 0.618,0.449 L 14.383,3.9 15,3.452 15.618,3.9 15.382,3.175 16,2.726 H 15.236 L 15,2 14.765,2.726 Z m -12,4 L 2.619,7.175 2.383,7.9 3,7.452 3.618,7.9 3.382,7.175 4,6.726 H 3.236 L 3,6 2.765,6.726 Z M 6.383,7.9 7,7.452 7.618,7.9 7.382,7.175 8,6.726 H 7.236 L 7,6 6.765,6.726 H 6.001 L 6.619,7.175 Z M 10.001,6.726 10.619,7.175 10.383,7.9 11,7.452 11.618,7.9 11.382,7.175 12,6.726 H 11.236 L 11,6 10.765,6.726 Z m 4,0 0.618,0.449 L 14.383,7.9 15,7.452 15.618,7.9 15.382,7.175 16,6.726 H 15.236 L 15,6 14.765,6.726 Z m -12,4 0.618,0.449 L 2.383,11.9 3,11.452 3.618,11.9 3.382,11.175 4,10.726 H 3.236 L 3,10 2.765,10.726 Z M 6.383,11.9 7,11.452 7.618,11.9 7.382,11.175 8,10.726 H 7.236 L 7,10 6.765,10.726 H 6.001 l 0.618,0.449 z m 3.618,-1.174 0.618,0.449 L 10.383,11.9 11,11.452 11.618,11.9 11.382,11.175 12,10.726 H 11.236 L 11,10 10.765,10.726 Z m 4,0 0.618,0.449 L 14.383,11.9 15,11.452 15.618,11.9 15.382,11.175 16,10.726 H 15.236 L 15,10 14.765,10.726 Z" fill="#fff"/></svg>
