<svg class="emoji" aria-hidden="true" width="36" height="26" version="1.1" viewBox="0 10 36 26" xmlns="http://www.w3.org/2000/svg"><path d="m36 32c0 2.209-1.791 4-4 4h-28c-2.209 0-4-1.791-4-4v-18c0-2.209 1.791-4 4-4h28c2.209 0 4 1.791 4 4z" fill="#009b3a"/><path d="M 32.728,23 18,34.124 3.272,23 18,11.875 Z" fill="#fedf01"/><circle cx="17.976" cy="22.924" r="6.458" fill="#002776"/><path d="m12.277 19.887c-0.332 0.621-0.558 1.303-0.672 2.023 3.995-0.29 9.417 1.891 11.744 4.595 0.402-0.604 0.7-1.28 0.883-2.004-2.872-2.808-7.917-4.63-11.955-4.614z" fill="#cbe9d4"/><path d="m12 23.233h1v1h-1zm1 2h1v1h-1z" fill="#88c9f9"/><path d="m15 23.233h1v1h-1zm2 1h1v1h-1zm4 2h1v1h-1zm-3 1h1v1h-1zm3-6h1v1h-1z" fill="#55acee"/><path d="m19 25.233h1v1h-1z" fill="#3b88c3"/></svg>
